# xmcd
#
# Track frame offsets:
# 150
# 18036
# 32949
# 51713
# 70084
# 81509
# 95329
# 114430
# 129259
# 147114
# 163789
# 181809
# 207710
# 226937
# 242473
# 253818
# 265529
# 279687
# 295514
# 311757
#
# Disc length: 4399 seconds
#
#
# Revision: 0
# Processed by: cddbd v1.5.2PL0 Copyright (c) Steve Scherf et al.
# Submitted via: FreeRIP 2.951 
#
DISCID=1e112d14
DTITLE=Cesar and Paulinho - Perfil
DYEAR=2006
DGENRE=Country
TTITLE0=Amor além da vida
TTITLE1=Tudo por ela
TTITLE2=I Love You Baby
TTITLE3=Duas pessoas nuas
TTITLE4=Casaco de pele
TTITLE5=Nóis só que vira o zóio
TTITLE6=Ninguém vive sem amor
TTITLE7=Se tiver mulher "Nóis vai"
TTITLE8=Viajante Solitário
TTITLE9=Quando o amor é pra valer
TTITLE10=Quando o amor vira saudade
TTITLE11=Pot Pourri A Loira do carro etc.
TTITLE12=Dois amores dois irmãos
TTITLE13=Merena ai ai
TTITLE14=Deusa e Dama
TTITLE15=Pé de bode
TTITLE16=Meu coração parou
TTITLE17=Coração Marcado
TTITLE18=Quem não dança vai dançar
TTITLE19=Chique no Urtimo
EXTD=NELDVD:2007
EXTT0=
EXTT1=
EXTT2=
EXTT3=
EXTT4=
EXTT5=
EXTT6=
EXTT7=
EXTT8=
EXTT9=
EXTT10=
EXTT11=
EXTT12=
EXTT13=
EXTT14=
EXTT15=
EXTT16=
EXTT17=
EXTT18=
EXTT19=
PLAYORDER=
